<?xml version="1.0" encoding="UTF-8"?>
<svg width="130.74mm" height="19.622mm" version="1.1" viewBox="0 0 130.74 19.622" xmlns="http://www.w3.org/2000/svg">
<defs>
  <style type="text/css">
    @font-face {
        font-family: "Staatliches-Regular";
        src: local("Staatliches-Regular"),
            url(../fonts/Staatliches-Regular.ttf) format("truetype");
    }
  </style>
</defs>

<rect x="-7.3343" y="-8.8569" width="149.34" height="37.595" display="none" fill="#161a1d" stroke-linecap="round" stroke-linejoin="round" stroke-width="2.565" style="paint-order:stroke fill markers"/>
<g transform="translate(-7.5935 -47.488)">
<text transform="scale(.26458)" fill="#000000" font-family="sans-serif" font-size="96px" style="line-height:1.25;shape-inside:url(#rect1947);white-space:pre" xml:space="preserve"><tspan x="24.945312" y="110.44894"><tspan fill="#161a1d" font-family="Staatliches">SEQUENCES</tspan></tspan></text>
<text transform="matrix(.26458 0 0 .26458 .63782 36.223)" fill="#f5f3f4" font-family="sans-serif" font-size="96px" style="line-height:1.25;shape-inside:url(#rect1947-0);white-space:pre" xml:space="preserve"><tspan x="24.945312" y="110.44894"><tspan font-family="Staatliches">SEQUENCES</tspan></tspan></text>
<g stroke-linecap="round" stroke-linejoin="round">
<rect x="9.5123" y="86.387" width="28.293" height="28.293" fill="#161a1d" stroke="#161a1d" stroke-miterlimit="13.4" stroke-width="10.042" style="paint-order:stroke markers fill"/>
<g transform="translate(-.8358 6.1328)">
<circle cx="14.619" cy="100.53" r="3.17" fill="#f5f3f4" stroke-width="3.6959" style="paint-order:stroke fill markers"/>
<circle cx="24.494" cy="100.53" r="3.17" fill="#f5f3f4" stroke-width="3.6959" style="paint-order:stroke fill markers"/>
<circle cx="34.369" cy="100.53" r="3.17" fill="#f5f3f4" stroke-width="3.696" style="paint-order:stroke fill markers"/>
<path transform="matrix(.42185 0 0 .7732 -165.88 49.073)" d="m427.87 59.606-7.5145-13.015h15.029z" fill="#e5383b" stroke-width="9.6945" style="paint-order:stroke fill markers"/>
</g>
</g>
<g transform="matrix(.96745 0 0 .96745 102.01 -34.796)" stroke-linecap="round" stroke-linejoin="round">
<circle cx="14.619" cy="100.53" r="3.17" fill="#f5f3f4" stroke-width="3.6959" style="paint-order:stroke fill markers"/>
<circle cx="24.494" cy="100.53" r="3.17" fill="#f5f3f4" stroke-width="3.6959" style="paint-order:stroke fill markers"/>
<circle cx="34.369" cy="100.53" r="3.17" fill="#f5f3f4" stroke-width="3.696" style="paint-order:stroke fill markers"/>
<path transform="matrix(.42185 0 0 .7732 -165.88 49.073)" d="m427.87 59.606-7.5145-13.015h15.029z" fill="#e5383b" stroke-width="9.6945" style="paint-order:stroke fill markers"/>
</g>
<circle cx="116.16" cy="26.198" r="3.0668" fill="#161a1d" stroke-linecap="round" stroke-linejoin="round" stroke-width="3.5756" style="paint-order:stroke fill markers"/>
<circle cx="125.71" cy="26.198" r="3.0668" fill="#161a1d" stroke-linecap="round" stroke-linejoin="round" stroke-width="3.5756" style="paint-order:stroke fill markers"/>
<circle cx="135.26" cy="26.198" r="3.0668" fill="#161a1d" stroke-linecap="round" stroke-linejoin="round" stroke-width="3.5756" style="paint-order:stroke fill markers"/>
<path transform="matrix(.40812 0 0 .74803 -58.468 -23.586)" d="m427.87 59.606-7.5145-13.015h15.029z" fill="#e5383b" stroke-linecap="round" stroke-linejoin="round" stroke-width="9.6945" style="paint-order:stroke fill markers"/>
</g>
</svg>
