<?xml version="1.0" encoding="UTF-8" standalone="no"?>
<svg
   width="130.74mm"
   height="19.622mm"
   version="1.1"
   viewBox="0 0 130.74 19.622"
   id="svg50"
   xmlns="http://www.w3.org/2000/svg">
  <defs
     id="defs54" />
  <sodipodiNamedview
     id="namedview52"
     pagecolor="#ffffff"
     bordercolor="#666666"
     borderopacity="1.0"
     showgrid="false" />
  <rect
     x="-7.3343"
     y="-8.8569"
     width="149.34"
     height="37.595"
     display="none"
     fill="#161a1d"
     stroke-linecap="round"
     stroke-linejoin="round"
     stroke-width="2.565"
     style="paint-order:stroke fill markers"
     id="rect2" />
  <g
     transform="translate(-7.5935,-47.488)"
     id="g48">
    <text
       transform="scale(0.26458)"
       fill="#000000"
       font-family="sans-serif"
       font-size="96px"
       style="line-height:1.25;white-space:pre;shape-inside:url(#rect1947)"
       xml:space="preserve"
       id="text8"><tspan
         x="0"
         y="0"
         id="tspan888"><tspan
           style="font-family:Staatliches;fill:#161a1d"
           id="tspan886">SEQUENCES</tspan></tspan></text>
    <g
       aria-label="SEQUENCES"
       transform="matrix(0.26458,0,0,0.26458,7.4343231,65.50975)"
       id="text14"
       style="font-size:96px;line-height:1.25;white-space:pre;shape-inside:url(#rect1947-0);fill:#f5f3f4">
      <path
         d="m 20.16,0.96 q -5.184,0 -9.504,-2.592 Q 6.432,-4.32 3.84,-8.64 1.344,-13.056 1.344,-18.336 v -4.416 q 0,-0.48 0.48,-0.48 h 10.752 q 0.384,0 0.384,0.48 v 4.416 q 0,3.168 2.112,5.472 2.112,2.208 5.088,2.208 2.976,0 5.088,-2.304 2.112,-2.304 2.112,-5.376 0,-3.552 -4.608,-6.144 -1.536,-0.864 -4.8,-2.688 -3.264,-1.824 -6.144,-3.456 -5.28,-3.072 -7.872,-7.68 -2.496,-4.704 -2.496,-10.56 0,-5.376 2.592,-9.6 2.592,-4.32 6.816,-6.816 4.32,-2.496 9.312,-2.496 5.088,0 9.312,2.592 4.32,2.496 6.816,6.816 2.592,4.224 2.592,9.504 v 7.872 q 0,0.384 -0.384,0.384 H 27.744 q -0.384,0 -0.384,-0.384 l -0.096,-7.872 q 0,-3.36 -2.112,-5.472 -2.112,-2.112 -4.992,-2.112 -2.976,0 -5.088,2.304 -2.112,2.208 -2.112,5.28 0,3.168 1.344,5.28 1.344,2.112 4.896,4.032 0.48,0.288 1.824,1.056 1.44,0.672 3.072,1.632 1.632,0.864 2.88,1.536 1.344,0.672 1.632,0.864 4.8,2.688 7.584,6.624 2.784,3.84 2.784,9.504 0,5.472 -2.592,9.888 -2.496,4.32 -6.816,6.912 Q 25.344,0.96 20.16,0.96 Z"
         style="font-family:Staatliches"
         id="path871" />
      <path
         d="m 46.080079,0 q -0.384,0 -0.384,-0.48 l 0.096,-65.952 q 0,-0.384 0.384,-0.384 h 30.816 q 0.384,0 0.384,0.48 v 10.752 q 0,0.384 -0.384,0.384 h -19.68 v 14.976 h 19.68 q 0.384,0 0.384,0.384 l 0.096,10.848 q 0,0.384 -0.384,0.384 h -19.776 v 16.8 h 19.776 q 0.384,0 0.384,0.48 v 10.944 q 0,0.384 -0.384,0.384 z"
         style="font-family:Staatliches"
         id="path873" />
      <path
         d="m 116.06401,6.144 -6.624,-6.72 q -3.456,1.536 -7.2,1.536 -5.087995,0 -9.407995,-2.592 -4.32,-2.592 -6.912,-7.008 -2.592,-4.416 -2.592,-9.696 l 0.096,-30.432 q 0,-5.088 2.496,-9.408 2.496,-4.416 6.72,-7.008 4.32,-2.688 9.599995,-2.688 5.088,0 9.312,2.592 4.32,2.496 6.816,6.816 2.592,4.32 2.592,9.696 l 0.096,30.432 q 0,2.784 -0.768,5.376 -0.768,2.592 -2.016,4.8 l 5.952,6.048 q 0.384,0.384 0.096,0.672 l -7.584,7.584 q -0.384,0.288 -0.672,0 z m -13.824,-16.8 q 3.264,0 5.184,-2.4 2.016,-2.496 2.016,-5.28 l -0.096,-30.432 q 0,-3.072 -2.016,-5.28 -2.016,-2.304 -5.088,-2.304 -3.263995,0 -5.279995,2.304 -1.92,2.304 -1.92,5.28 v 30.432 q 0,3.456 2.208,5.568 2.304,2.112 4.991995,2.112 z"
         style="font-family:Staatliches"
         id="path875" />
      <path
         d="m 146.87998,0.96 q -5.088,0 -9.408,-2.592 -4.32,-2.688 -6.912,-7.104 -2.496,-4.416 -2.496,-9.696 l 0.192,-48 q 0,-0.384 0.384,-0.384 h 10.752 q 0.384,0 0.384,0.384 v 48 q 0,3.264 2.016,5.568 2.112,2.208 5.088,2.208 3.072,0 5.088,-2.208 2.112,-2.304 2.112,-5.568 v -48 q 0,-0.384 0.384,-0.384 h 10.752 q 0.384,0 0.384,0.384 l 0.192,48 q 0,5.376 -2.592,9.792 -2.496,4.416 -6.816,7.008 -4.224,2.592 -9.504,2.592 z"
         style="font-family:Staatliches"
         id="path877" />
      <path
         d="m 173.75989,0 q -0.384,0 -0.384,-0.48 l 0.096,-65.952 q 0,-0.384 0.384,-0.384 h 30.816 q 0.384,0 0.384,0.48 v 10.752 q 0,0.384 -0.384,0.384 h -19.68 v 14.976 h 19.68 q 0.384,0 0.384,0.384 l 0.096,10.848 q 0,0.384 -0.384,0.384 h -19.776 v 16.8 h 19.776 q 0.384,0 0.384,0.48 v 10.944 q 0,0.384 -0.384,0.384 z"
         style="font-family:Staatliches"
         id="path879" />
      <path
         d="m 214.5599,0 q -0.768,0 -0.768,-0.672 l -0.096,-65.376 q 0,-0.768 0.768,-0.768 h 8.64 l 16.224,37.824 -0.48,-37.056 q 0,-0.768 0.864,-0.768 h 9.504 q 0.576,0 0.576,0.768 l 0.096,65.472 q 0,0.576 -0.48,0.576 h -8.448 l -16.608,-35.328 0.672,34.56 q 0,0.768 -0.864,0.768 z"
         style="font-family:Staatliches"
         id="path881" />
      <path
         d="m 275.90396,0.96 q -5.28,0 -9.6,-2.592 -4.224,-2.688 -6.72,-7.104 -2.496,-4.416 -2.496,-9.888 l 0.096,-29.952 q 0,-5.28 2.4,-9.6 2.496,-4.416 6.72,-7.008 4.32,-2.688 9.6,-2.688 5.28,0 9.504,2.592 4.224,2.592 6.72,7.008 2.496,4.32 2.496,9.696 v 4.416 q 0,0.384 -0.384,0.384 h -10.752 q -0.384,0 -0.384,-0.384 v -4.416 q 0,-3.168 -2.112,-5.472 -2.016,-2.304 -5.088,-2.304 -3.456,0 -5.28,2.4 -1.824,2.304 -1.824,5.376 v 29.952 q 0,3.552 2.016,5.76 2.112,2.208 5.088,2.208 3.072,0 5.088,-2.4 2.112,-2.496 2.112,-5.568 v -4.416 q 0,-0.384 0.384,-0.384 h 10.848 q 0.384,0 0.384,0.384 v 4.416 q 0,5.472 -2.592,9.888 -2.496,4.416 -6.72,7.104 -4.224,2.592 -9.504,2.592 z"
         style="font-family:Staatliches"
         id="path883" />
      <path
         d="m 302.11188,0 q -0.384,0 -0.384,-0.48 l 0.096,-65.952 q 0,-0.384 0.384,-0.384 h 30.816 q 0.384,0 0.384,0.48 v 10.752 q 0,0.384 -0.384,0.384 h -19.68 v 14.976 h 19.68 q 0.384,0 0.384,0.384 l 0.096,10.848 q 0,0.384 -0.384,0.384 h -19.776 v 16.8 h 19.776 q 0.384,0 0.384,0.48 v 10.944 q 0,0.384 -0.384,0.384 z"
         style="font-family:Staatliches"
         id="path885" />
      <path
         d="m 357.79184,0.96 q -5.184,0 -9.504,-2.592 -4.224,-2.688 -6.816,-7.008 -2.496,-4.416 -2.496,-9.696 v -4.416 q 0,-0.48 0.48,-0.48 h 10.752 q 0.384,0 0.384,0.48 v 4.416 q 0,3.168 2.112,5.472 2.112,2.208 5.088,2.208 2.976,0 5.088,-2.304 2.112,-2.304 2.112,-5.376 0,-3.552 -4.608,-6.144 -1.536,-0.864 -4.8,-2.688 -3.264,-1.824 -6.144,-3.456 -5.28,-3.072 -7.872,-7.68 -2.496,-4.704 -2.496,-10.56 0,-5.376 2.592,-9.6 2.592,-4.32 6.816,-6.816 4.32,-2.496 9.312,-2.496 5.088,0 9.312,2.592 4.32,2.496 6.816,6.816 2.592,4.224 2.592,9.504 v 7.872 q 0,0.384 -0.384,0.384 h -10.752 q -0.384,0 -0.384,-0.384 l -0.096,-7.872 q 0,-3.36 -2.112,-5.472 -2.112,-2.112 -4.992,-2.112 -2.976,0 -5.088,2.304 -2.112,2.208 -2.112,5.28 0,3.168 1.344,5.28 1.344,2.112 4.896,4.032 0.48,0.288 1.824,1.056 1.44,0.672 3.072,1.632 1.632,0.864 2.88,1.536 1.344,0.672 1.632,0.864 4.8,2.688 7.584,6.624 2.784,3.84 2.784,9.504 0,5.472 -2.592,9.888 -2.496,4.32 -6.816,6.912 -4.224,2.496 -9.408,2.496 z"
         style="font-family:Staatliches"
         id="path887" />
    </g>
    <g
       stroke-linecap="round"
       stroke-linejoin="round"
       id="g28">
      <rect
         x="9.5122995"
         y="86.387001"
         width="28.292999"
         height="28.292999"
         fill="#161a1d"
         stroke="#161a1d"
         stroke-miterlimit="13.4"
         stroke-width="10.042"
         style="paint-order:stroke markers fill"
         id="rect16" />
      <g
         transform="translate(-0.8358,6.1328)"
         id="g26">
        <circle
           cx="14.619"
           cy="100.53"
           r="3.1700001"
           fill="#f5f3f4"
           stroke-width="3.6959"
           style="paint-order:stroke fill markers"
           id="circle18" />
        <circle
           cx="24.493999"
           cy="100.53"
           r="3.1700001"
           fill="#f5f3f4"
           stroke-width="3.6959"
           style="paint-order:stroke fill markers"
           id="circle20" />
        <circle
           cx="34.368999"
           cy="100.53"
           r="3.1700001"
           fill="#f5f3f4"
           stroke-width="3.696"
           style="paint-order:stroke fill markers"
           id="circle22" />
        <path
           transform="matrix(0.42185,0,0,0.7732,-165.88,49.073)"
           d="m 427.87,59.606 -7.5145,-13.015 h 15.029 z"
           fill="#e5383b"
           stroke-width="9.6945"
           style="paint-order:stroke fill markers"
           id="path24" />
      </g>
    </g>
    <g
       transform="matrix(0.96745,0,0,0.96745,102.01,-33.963104)"
       stroke-linecap="round"
       stroke-linejoin="round"
       id="g38">
      <circle
         cx="14.619"
         cy="100.53"
         r="3.1700001"
         fill="#f5f3f4"
         stroke-width="3.6959"
         style="paint-order:stroke fill markers"
         id="circle30" />
      <circle
         cx="24.493999"
         cy="100.53"
         r="3.1700001"
         fill="#f5f3f4"
         stroke-width="3.6959"
         style="paint-order:stroke fill markers"
         id="circle32" />
      <circle
         cx="34.368999"
         cy="100.53"
         r="3.1700001"
         fill="#f5f3f4"
         stroke-width="3.696"
         style="paint-order:stroke fill markers"
         id="circle34" />
      <path
         transform="matrix(0.42185,0,0,0.7732,-165.88,49.073)"
         d="m 427.87,59.606 -7.5145,-13.015 h 15.029 z"
         fill="#e5383b"
         stroke-width="9.6945"
         style="paint-order:stroke fill markers"
         id="path36" />
    </g>
    <circle
       cx="116.16"
       cy="26.198"
       r="3.0668001"
       fill="#161a1d"
       stroke-linecap="round"
       stroke-linejoin="round"
       stroke-width="3.5756"
       style="paint-order:stroke fill markers"
       id="circle40" />
    <circle
       cx="125.71"
       cy="26.198"
       r="3.0668001"
       fill="#161a1d"
       stroke-linecap="round"
       stroke-linejoin="round"
       stroke-width="3.5756"
       style="paint-order:stroke fill markers"
       id="circle42" />
    <circle
       cx="135.25999"
       cy="26.198"
       r="3.0668001"
       fill="#161a1d"
       stroke-linecap="round"
       stroke-linejoin="round"
       stroke-width="3.5756"
       style="paint-order:stroke fill markers"
       id="circle44" />
    <path
       transform="matrix(0.40812,0,0,0.74803,-58.468,-23.586)"
       d="m 427.87,59.606 -7.5145,-13.015 h 15.029 z"
       fill="#e5383b"
       stroke-linecap="round"
       stroke-linejoin="round"
       stroke-width="9.6945"
       style="paint-order:stroke fill markers"
       id="path46" />
  </g>
</svg>
